<svg xmlns="http://www.w3.org/2000/svg" width="512" height="512" viewBox="0 0 512 512" data-svgdocument="" id="_EvqZtYRDSazfkhAsdo-vZ" class="fl-svgdocument" style="overflow: visible;" x="0" y="0" xmlns:xlink="http://www.w3.org/1999/xlink">
  <defs id="_fQmfCkIfpOIJRdrhrH6uK" transform="matrix(1.1060948371887207, 0, 0, 1.1060948371887207, -29.279157638549805, -36.412784576416016)"></defs>
  <rect id="_tu7HYPu4gJOBtwExni1uX" x="-0.013" y="0" width="176.769" height="176.769" fill="#0078be" transform="matrix(0.822786, 0, 0, 0.481445, 288.326, 216.193)"></rect>
  <path text="HAR" text-anchor="end" font-size="100" letter-spacing="0" side="left" offset="1" dx="0" dy="0" space="preserve" href="" font-family="Fugaz One" font-scale="contain" transform="matrix(0.549826, 0, 0, 0.549826, 269.406, 277.154)" x="0" y="0" fill="#0078be" data-fl-textpath="" id="_kgrGoEl80OA2fNhtLVFXi" font-weight="400" font-style="normal" d="M-147.30000000000004-72L-129.30000000000004-72L-141.90000000000003 0L-160.00000000000003 0L-155.40000000000003-26L-174.90000000000003-26L-179.40000000000003 0L-197.50000000000003 0L-184.80000000000004-72L-166.80000000000004-72L-172.20000000000005-41.6L-152.70000000000005-41.6L-147.30000000000004-72ZM-73.20000000000005 0L-92.20000000000005 0L-91.60000000000005-15.7L-108.30000000000004-15.7L-113.20000000000005 0L-132.30000000000004 0L-106.60000000000005-72L-73.60000000000005-72L-73.20000000000005 0ZM-90.00000000000004-54.5L-96.30000000000004-54.5L-104.20000000000005-29.1L-91.10000000000005-29.1L-90.00000000000004-54.5ZM-51.000000000000036-72L-22.000000000000036-72Q-10.600000000000037-72 -5.80000000000004-67L-5.80000000000004-67Q-2.2000000000000384-63.2 -2.2000000000000384-57.4L-2.2000000000000384-57.4Q-2.2000000000000384-55.4 -2.600000000000037-53.2L-2.600000000000037-53.2L-4.0000000000000355-45.4Q-5.200000000000038-38.9 -8.150000000000034-34.9Q-11.100000000000037-30.9 -14.700000000000038-29.2L-14.700000000000038-29.2L-5.600000000000037 0L-25.80000000000004 0L-34.20000000000004-26.9L-40.400000000000034-26.9L-44.500000000000036 0L-63.70000000000004 0L-51.000000000000036-72ZM-28.30000000000004-56.4L-28.30000000000004-56.4L-35.80000000000004-56.4L-38.400000000000034-39L-31.400000000000034-39Q-26.100000000000037-39 -23.80000000000004-41.55Q-21.500000000000036-44.1 -21.500000000000036-48.3L-21.500000000000036-48.3Q-21.500000000000036-56.4 -28.30000000000004-56.4Z"></path>
  <path text="BOR" text-anchor="start" font-size="100" letter-spacing="0" side="left" offset="0" dx="0" dy="0" space="preserve" href="" font-family="Fugaz One" font-scale="contain" transform="matrix(0.555799, 0, 0, 0.555799, 297.647, 277.174)" x="0" y="0" fill="#ffffff" data-fl-textpath="" id="_t267fz43MnLYeMl49mrX4" d="M 14.6-72L 43.6-72Q 55-72  59.8-67L 59.8-67Q 63.4-63.2  63.4-57.4L 63.4-57.4Q 63.4-55.4  63-53.2L 63-53.2L 62.1-48.4Q 61-42.7  57.85-39.5Q 54.7-36.3  52.3-36.3L 52.3-36.3L 52.2-35.5Q 55-35.5  57.9-32.4Q 60.8-29.3  60.8-25.1L 60.8-25.1Q 60.8-23.4  60.4-21.5L 60.4-21.5L 59.8-18.4Q 58.2-9.8  52.15-4.9Q 46.1 0  35.3 0L 35.3 0L 1.9 0L 14.6-72ZM 34.6-29.4L 34.6-29.4L 25.1-29.4L 22.7-15.6L 32.2-15.6Q 32.4-15.6  32.6-15.6L 32.6-15.6Q 37.2-15.6  39.9-17.75Q 42.6-19.9  42.6-23L 42.6-23Q 42.6-29.4  34.6-29.4ZM 37.3-56.4L 37.3-56.4L 29.8-56.4L 27.2-41.5L 34.6-41.5Q 44.2-41.5  44.2-49.9L 44.2-49.9Q 44.2-52.8  42.45-54.6Q 40.7-56.4  37.3-56.4ZM 106.5-72.7L 106.5-72.7Q 130.60000000000002-72.7  130.60000000000002-53L 130.60000000000002-53Q 130.60000000000002-49.7  129.9-45.9L 129.9-45.9L 126.4-25.9Q 124-12  116-5.3Q 108 1.4  93.5 1.4Q 79 1.4  73.3-5.3L 73.3-5.3Q 69.4-9.9  69.4-18L 69.4-18Q 69.4-21.6  70.2-25.9L 70.2-25.9L 73.7-45.9Q 78.4-72.7  106.5-72.7ZM 96.2-14.1L 96.2-14.1Q 101.2-14.1  104.2-16.7Q 107.2-19.3  108.4-26.3L 108.4-26.3L 111.80000000000001-45.5Q 112.1-47.5  112.1-49.1L 112.1-49.1Q 112.1-57.2  103.9-57.2L 103.9-57.2Q 93.6-57  91.6-45.5L 91.6-45.5L 88.2-26.3Q 87.80000000000001-23.8  87.80000000000001-21.1L 87.80000000000001-21.1Q 87.80000000000001-14.1  96.2-14.1ZM 146.70000000000002-72L 175.70000000000002-72Q 187.10000000000002-72  191.90000000000003-67L 191.90000000000003-67Q 195.50000000000003-63.2  195.50000000000003-57.4L 195.50000000000003-57.4Q 195.50000000000003-55.4  195.10000000000002-53.2L 195.10000000000002-53.2L 193.70000000000002-45.4Q 192.50000000000003-38.9  189.55-34.9Q 186.60000000000002-30.9  183.00000000000003-29.2L 183.00000000000003-29.2L 192.10000000000002 0L 171.90000000000003 0L 163.50000000000003-26.9L 157.3-26.9L 153.20000000000002 0L 134.00000000000003 0L 146.70000000000002-72ZM 169.40000000000003-56.4L 169.40000000000003-56.4L 161.90000000000003-56.4L 159.3-39L 166.3-39Q 171.60000000000002-39  173.90000000000003-41.55Q 176.20000000000002-44.1  176.20000000000002-48.3L 176.20000000000002-48.3Q 176.20000000000002-56.4  169.40000000000003-56.4Z"></path>
  <path id="_i-P5Eg4_6TvtwfSdK4Ta9" d="M167.742,39.885v94.5H9v-94.5H167.742 M176.742,30.885H0v112.5h176.742V30.885L176.742,30.885z" fill="#0078be" transform="matrix(0.835221, 0, 0, 0.756485, 140.697, 192.829)"></path>
</svg>